<?xml version="1.0" encoding="UTF-8" standalone="no"?>
<svg
   xmlns:dc="http://purl.org/dc/elements/1.1/"
   xmlns:cc="http://creativecommons.org/ns#"
   xmlns:rdf="http://www.w3.org/1999/02/22-rdf-syntax-ns#"
   xmlns:svg="http://www.w3.org/2000/svg"
   xmlns="http://www.w3.org/2000/svg"
   xmlns:xlink="http://www.w3.org/1999/xlink"
   xmlns:sodipodi="http://sodipodi.sourceforge.net/DTD/sodipodi-0.dtd"
   xmlns:inkscape="http://www.inkscape.org/namespaces/inkscape"
   version="1.1"
   viewBox="0 0 56.444446 56.444444"
   id="svg133"
   sodipodi:docname="ArtelBear.svg"
   inkscape:version="0.92.2 5c3e80d, 2017-08-06">
  <metadata
     id="metadata137">
    <rdf:RDF>
      <cc:Work
         rdf:about="">
        <dc:format>image/svg+xml</dc:format>
        <dc:type
           rdf:resource="http://purl.org/dc/dcmitype/StillImage" />
      </cc:Work>
    </rdf:RDF>
  </metadata>
  <sodipodi:namedview
     pagecolor="#ffffff"
     bordercolor="#666666"
     borderopacity="1"
     objecttolerance="10"
     gridtolerance="10"
     guidetolerance="10"
     inkscape:pageopacity="0"
     inkscape:pageshadow="2"
     inkscape:window-width="1366"
     inkscape:window-height="703"
     id="namedview135"
     showgrid="false"
     inkscape:zoom="8.8405514"
     inkscape:cx="28.222223"
     inkscape:cy="32.746826"
     inkscape:window-x="0"
     inkscape:window-y="0"
     inkscape:window-maximized="1"
     inkscape:current-layer="svg133" />
  <defs
     id="defs119">
    <pattern
       id="pattern5206"
       xlink:href="#pattern6127"
       patternTransform="matrix(.38637 -.10353 .10353 .38637 -17.347 187.22)" />
    <pattern
       id="pattern6127"
       xlink:href="#Wavywhite"
       patternTransform="rotate(-15 62.319 223.46)" />
    <pattern
       id="Wavywhite"
       height="5.1805778"
       width="30.066020"
       patternUnits="userSpaceOnUse">
      <path
         fill="#fff"
         d="m7.597 0.061c-2.518-0.248-4.941 0.241-7.607 1.727v1.273c2.783-1.63 5.183-2.009 7.482-1.781 2.298 0.228 4.497 1.081 6.781 1.938 4.567 1.713 9.551 3.458 15.813-0.157l-0.004-1.273c-6.44 3.709-10.816 1.982-15.371 0.273-2.278-0.854-4.576-1.75-7.094-2z"
         id="path116" />
    </pattern>
  </defs>
  <g
     transform="translate(0 -240.56)"
     id="g131">
    <g
       transform="matrix(.96840 0 0 .96884 .89180 8.3758)"
       id="g129">
      <path
         style="paint-order:normal"
         d="m28.348 240.56c-1.7759 0.25377-3.5519 0.86938-5.3278 1.2619-1.419 0.0431-2.1905 1.2455-3.1569 2.1058-0.4834 0.27242-1.0248 1.4301-1.6283 0.84388-0.86844-1.5016-2.4707-2.5241-4.2168-2.5952-2.9048-0.33785-5.5231 2.4882-5.1165 5.3557 1.2742 1.3904 2.8279 2.6112 3.9284 4.1072-1.2801 7.7376-2.6278 15.462-3.8179 23.213-0.28875 0.70165 0.023805 1.3519 0.53123 1.8521 5.5506 6.4347 11.334 12.668 17.079 18.93 0.59745 0.44417 1.1975 1.9077 2.0975 1.1622 5.8658-6.2525 11.546-12.684 17.273-19.066 0.39851-0.70898 1.4861-1.1797 1.4418-2.0567-1.0756-8.0212-2.624-16.031-3.9124-24.044 0.95912-1.3671 2.3774-2.4573 3.5109-3.7192 0.80632-0.41663 0.5325-1.2351 0.39119-1.9472-0.49212-2.4867-3.0667-4.1008-5.5252-3.7228-1.8307 0.0457-2.9568 1.6718-4.1424 2.7952-0.83051-0.46727-1.4238-1.3226-2.1601-1.9436-0.9601-1.3706-2.7457-1.2584-4.1915-1.757-1.0189-0.2584-2.0383-0.51675-3.0572-0.77515z"
         id="path121"
         stroke-linejoin="round"
         stroke-width="1.821"
         stroke="#000"
         fill="url(#pattern5206)" />
      <g
         id="g127"
         stroke-width="1.0324">
        <path
           style="paint-order:markers stroke fill"
           d="m106.56 44.543c-2.1243 0.35316-4.9058 0.82791-4.7016 3.6086-4.2392 16.757-8.4784 33.515-12.718 50.272 3.4231 4.2427 7.8062 7.927 11.589 11.961 3.8339 0.23703 7.8719 0.24613 11.707 0.004 3.8641-4.0249 8.3367-7.689 11.832-11.932-4.418-17.442-8.8364-34.884-13.255-52.326-1.1478-0.83545-2.9585-1.5132-4.4544-1.586zm0.15176 39.714c8.0482-0.79824 15.578 7.8157 13.453 15.726-1.4051 2.0285-5.6009 1.4442-5.7816-1.343-0.14663-4.5289-4.2117-8.9178-8.9596-7.8526-4.0719 0.54418-6.4189 4.5948-6.5588 8.3833-0.7875 3.2488-6.5026 2.6334-6.1158-0.96228-0.45671-7.426 6.4541-14.621 13.963-13.952z"
           transform="matrix(.26458 0 0 .26458 0 240.56)"
           id="path123"
           fill="#fff"
           opacity=".45" />
        <path
           style="paint-order:markers stroke fill"
           d="m28.204 250.37c-0.11303 0.002-0.22438 0.0248-0.3294 0.0662l-1.873 0.74619c-0.27927 0.11042-0.48794 0.34757-0.56152 0.63718l-3.7451 14.891c-0.07966 0.31733 0.01387 0.65326 0.2467 0.88435l3.7451 3.722c0.17523 0.17504 0.41316 0.27359 0.66161 0.27396h3.7469c0.24845-0.00049 0.48685-0.0989 0.66208-0.27396l3.7455-3.7225c0.2328-0.23108 0.32636-0.56702 0.2467-0.88434l-3.7451-14.891c-0.07325-0.28935-0.28263-0.52608-0.562-0.63626l-1.8721-0.74618c-0.11615-0.046-0.24056-0.0691-0.36558-0.0662zm0.01879 1.9336 1.0803 0.42853 3.5007 13.918-3.0966 3.0769h-2.9716l-3.0957-3.0769 3.5026-13.918zm7.4911 0.65879c-0.48497 0.0001-0.97058 0.12501-1.4045 0.37402-0.8679 0.49802-1.405 1.4212-1.405 2.4172-0.0072 0.51393 0.4053 0.93583 0.9224 0.94402 0.52762 0.007 0.95768-0.41962 0.95013-0.94402 0-0.33398 0.17745-0.63888 0.46848-0.80588s0.64594-0.167 0.93697 0 0.46896 0.4719 0.46896 0.80588c-0.02537 1.2658 1.8975 1.2658 1.8721 0 0-0.99606-0.53758-1.9192-1.4055-2.4172-0.43394-0.24901-0.91907-0.37355-1.404-0.37355zm-14.984 0.00048c-0.48501-0.00003-0.96965 0.12454-1.4036 0.37355-0.8679 0.49803-1.4059 1.4212-1.4059 2.4172-0.0072 0.51393 0.4053 0.93582 0.9224 0.94402 0.52828 0.008 0.95908-0.41899 0.95154-0.94402 0-0.334 0.17603-0.63888 0.46708-0.80589 0.29103-0.16699 0.64641-0.16699 0.93744 0 0.29104 0.16701 0.46849 0.47189 0.46849 0.80589-0.02525 1.2657 1.8978 1.2657 1.8725 0 0-0.99607-0.53758-1.9192-1.4055-2.4172-0.43394-0.24901-0.91953-0.37355-1.4045-0.37355zm7.4915 9.7494c-0.65592-0.0001-1.3111 0.16845-1.8979 0.50514-1.1735 0.67341-1.8974 1.9218-1.8974 3.2686-0.0073 0.51311 0.40429 0.93494 0.92052 0.94402 0.52849 0.008 0.95956-0.41875 0.95201-0.94402 0-0.68477 0.36567-1.3148 0.96235-1.6573 0.59668-0.34237 1.3275-0.34238 1.9242 0 0.59669 0.34237 0.96047 0.97254 0.96047 1.6573 0.000481 1.2416 1.8755 1.2416 1.8749 0 0-1.3468-0.72619-2.5952-1.8998-3.2686-0.58678-0.33669-1.2429-0.50514-1.8988-0.50514z"
           id="path125" />
      </g>
    </g>
  </g>
</svg>
