<?xml version="1.0" encoding="UTF-8" standalone="no"?>
<!-- Created with Inkscape (http://www.inkscape.org/) -->
<svg xmlns:rdf="http://www.w3.org/1999/02/22-rdf-syntax-ns#" xmlns="http://www.w3.org/2000/svg" height="200pt" width="200pt" version="1.1" xmlns:cc="http://creativecommons.org/ns#" xmlns:dc="http://purl.org/dc/elements/1.1/" viewBox="0 0 70.555553 70.555555">
	<metadata>
		<rdf:RDF>
			<cc:Work rdf:about="">
				<dc:format>image/svg+xml</dc:format>
				<dc:type rdf:resource="http://purl.org/dc/dcmitype/StillImage"/>
				<dc:title/>
			</cc:Work>
		</rdf:RDF>
	</metadata>
	<g transform="translate(-13.871 -98.102)">
		<g transform="translate(.00015718 .00015463)">
			<path d="m16.467 144.33c-1.5722-1.4791-1.0178 6.25-0.16013 6.9169 0.85769 0.66691 6.0229-3.1821 4.7484-4.8141-0.87442-1.1197-3.6596-1.2291-4.5883-2.1028z" stroke="#000" stroke-width="2.4377" fill="#fff"/>
			<path style="paint-order:stroke markers fill" d="m42.511 152.31c-3.5218 1.2829-7.272 2.7513-11.054 1.8736-1.5669-0.39225-3.0429-1.1523-4.5939-1.5354-2.94 1.8055-6.1868 3.1904-8.8001 5.4812-0.68675 0.71536-1.6881 1.8518-1.0471 2.8855 1.1708 1.5441 3.3081 1.7709 5.0963 1.9884 4.5955 0.24465 9.3347-0.9389 13.074-3.6804 2.7185-1.9427 5.2958-4.1329 7.504-6.6432 0.1215-0.14542 0.03017-0.40191-0.17928-0.36977z" fill="#3d7a3d"/>
			<g transform="matrix(1.3816 0 0 1.3823 -5.2935 -64.484)" stroke="#000" stroke-width="1.7639" fill="#ff3e3e">
				<path d="m52.182 131.61s3.6609-2.5456 5.5257-2.6908c1.8648-0.14514 3.5875 0.13971 4.853 1.4895s1.6968 3.8143 1.3934 5.8621c-0.30337 2.0477-3.2193 5.5257-3.2193 5.5257"/>
				<path d="m35.709 126.13c0.005-1.7549 0.27201-3.6519 1.4617-5.0247 0.70974-0.76659 1.4499-1.5392 2.4012-2.0078 1.3523-0.73643 3.1144-0.85715 4.4358 0.015 1.574 1.018 2.3003 2.9333 2.4262 4.7376 0.05897 0.92003-0.04967 1.8397-0.12423 2.7556"/>
			</g>
			<g stroke-linejoin="round" transform="matrix(1.3816 0 0 1.3823 -5.2935 -64.484)" stroke="#000" stroke-linecap="round" stroke-width="1.7639" fill="#71b971">
				<path d="m41.166 121.48c-1.3103 0.083-2.5174 1.0916-2.7746 2.3889-0.24047 0.94768-0.28415 1.9292-0.31327 2.9021 0.13114 0.78996 0.7593 1.348 1.2852 1.8984 0.41446 0.42832 1.0127 0.80743 1.6328 0.65625 0.78664-0.18079 1.3297-0.84228 1.7539-1.4844 0.45711-0.66763 0.91938-1.3317 1.3867-1.9922 0.03342-1.2446-0.2479-2.5046-0.84961-3.5977-0.5134-0.60618-1.3563-0.81009-2.1211-0.77148z"/>
				<path d="m58.508 132.19c-1.4544 0.22149-2.6942 1.0668-3.9766 1.7266-0.36486 0.18107-0.81158 0.40248-0.87882 0.85163-0.16578 0.67573-0.24539 1.3792-0.20321 2.0742 0.07013 0.69618 0.42915 1.3718 1.0262 1.7539 0.71126 0.49967 1.6106 0.61055 2.4587 0.58132 0.59252 0.0108 1.2376-0.11673 1.6525-0.57477 0.69964-0.64335 1.3002-1.3855 1.8891-2.1286 0.50862-0.67886 0.80488-1.586 0.53909-2.4209-0.3064-1.0801-1.3641-1.9301-2.507-1.8633z"/>
			</g>
			<g stroke="#000">
				<path stroke-linejoin="round" style="paint-order:stroke markers fill" d="m42.086 152.05c-2.3304 0.84893-7.9625 3.1619-10.465 2.5812-1.0368-0.25955-2.0135-0.76251-3.0398-1.016-1.9454 1.1948-4.0938 2.1111-5.8231 3.627-0.45444 0.47334-1.117 1.2253-0.6929 1.9093 0.7747 1.0217 2.189 1.1719 3.3722 1.3157 3.0408 0.16187 6.1768-0.62124 8.6512-2.4353 1.7988-1.2855 6.6548-4.0762 8.1161-5.7372 0.08038-0.0959 0.01995-0.26598-0.11861-0.24471z" stroke-linecap="round" stroke-width="4.8754" fill="#71b971"/>
				<path d="m28.086 150.94c-1.9013-1.0216 0.63366 6.3006 1.6346 6.7227 1.001 0.42209 4.9945-4.6333 3.3413-5.8797-1.1343-0.85513-3.8528-0.23955-4.9759-0.84301z" stroke-width="2.4377" fill="#fff"/>
				<path d="m26.798 158.89c-0.6225-2.0675-4.0049 4.9035-3.5954 5.9101 0.40949 1.0066 6.8062 0.25722 6.518-1.7938-0.19768-1.4071-2.555-2.8951-2.9227-4.1164z" stroke-width="2.4377" fill="#fff"/>
			</g>
			<path style="paint-order:stroke markers fill" d="m50.003 110.41c-3.1279-0.0369-6.3035 0.28437-9.2076 1.5215-2.8529 1.2359-5.788 2.5473-8.0843 4.6968-1.4342 1.5161-2.1622 3.5402-3.1224 5.3617-0.12556 0.51442-0.71484 1.0924-0.47852 1.623 6.5924 3.9956 12.257 9.3516 17.191 15.232 0.51693 0.43255 0.75899 1.2564 0.11289 1.6992-0.74068 0.64286-1.3918-0.28352-1.8734-0.76563-3.1014-3.4654-6.3342-6.8256-9.8932-9.8271-1.0094 0.26777-1.8926 1.0771-2.8546 1.5602-2.6719 1.4899-5.3593 3.1039-8.3517 3.8348-1.2715 0.22504-2.1964-0.92935-2.3955-2.0613-0.39615-1.2355-0.47178-2.5816-0.99603-3.7736-0.51179-0.18584-0.77967 0.61845-1.0994 0.89697-2.5189 3.1567-3.1344 7.4326-2.6136 11.341 0.39459 2.7996 2.8401 4.6092 5.0937 5.9611 3.2926 1.9282 6.8167 3.4866 10.46 4.6171 3.2108 0.80341 6.3768-0.68196 9.3595-1.6905 1.9987-0.64172 3.9486-1.6594 6.0743-1.7432 0.80989 0.32156 0.798 1.5019 0.07816 1.9344-4.1428 3.8611-8.42 7.6058-12.789 11.219-2.9222 1.9714-6.5302 2.552-9.9881 2.7008-1.4185 0.0807-2.8522-0.17814-4.2797-0.14058-0.42156 0.42069 0.4557 0.57758 0.73551 0.66005 3.5045 0.91122 7.1326 1.2078 10.744 1.0615 3.7006-0.0194 7.4043-0.11957 11.085-0.48781 7.8252-0.59801 15.687-0.55147 23.513-1.1351 3.481-0.27097 7.2221-0.87544 9.8898-3.3332 2.9826-2.7869 5.2277-6.7329 5.0482-10.919 0.19398-3.6984-0.69421-7.3167-1.3328-10.931-0.65001-3.5429-1.6383-7.1735-4.0289-9.97-3.0353-3.8034-6.8642-6.9898-9.5513-11.047-1.2772-2.2121-2.7106-4.5442-5.1266-5.6515-2.9811-1.5611-6.3086-2.5142-9.6911-2.4332-0.5424-0.0124-1.0851-0.0149-1.6276-0.0124zm-7.8485 6.3725c1.0972 0.0424 1.3666 1.4049 1.0815 2.2624-0.09985 0.76631-0.56335 1.746-1.5234 1.4831-1.6151-0.48259-1.3612-3.7397 0.44183-3.7455zm-6.9867 2.8487c1.7975 0.27613 1.7595 3.3496 0.03183 3.7044-1.3372 0.21837-1.8904-1.52-1.4747-2.5591 0.19178-0.62175 0.76392-1.1721 1.4429-1.1453zm18.093 6.0719c0.90152-0.15235 1.6886 1.0233 0.96524 1.7074-0.65394 0.9299-1.8429 1.4798-2.9536 1.4918-0.77529-0.16119-1.608-1.0141-1.2126-1.8214 0.85036-0.77003 2.0652-1.2677 3.201-1.3778zm-1.0271 5.6393c1.1083-0.0955 2.384 0.8631 1.9742 2.0655-0.48713 0.67535-1.5089 0.54102-2.2455 0.64979-0.62221-0.0604-1.4874-0.0435-1.9021-0.57186-0.26677-0.97778 0.39762-2.0544 1.4444-2.101 0.25215-0.039 0.48295-0.0489 0.72893-0.0424zm-30.415 6.2564c0.9524 0.0326 1.0282 1.2378 0.80998 1.9193-0.30676 1.1586-0.74587 2.6387-1.9763 3.1247-0.94389 0.22639-1.772-0.88532-1.3113-1.7461 0.42179-1.2733 1.12-2.6337 2.3439-3.2789 0.04378-0.0111 0.08865-0.0173 0.13369-0.0189zm15.528 2.3688c0.82158 0.0462 1.3493 1.0328 0.86761 1.7134-0.38104 0.54361-1.1879 0.6677-1.5447 0.0138-0.54481-0.61734-0.34208-1.8131 0.67709-1.7266zm-2.976 1.8843c0.73345 0.0297 1.1544 0.79554 0.95261 1.4707-0.22571 0.95489-1.7646 0.87809-1.876-0.12981-0.18441-0.61829 0.21506-1.3756 0.9234-1.3409zm3.2625 3.4256c0.9154 0.0354 1.1654 1.3196 0.46052 1.8351-0.40818 0.55452-1.3107 0.77194-1.7352 0.12192-0.55147-0.85411 0.30516-2.0452 1.2747-1.957z" fill="#ff3e3e"/>
			<path stroke-linejoin="round" d="m26.98 151.58c-4.4535 2.7221-5.9836 3.18-8.3399 4.9799-0.32974 0.25189-4.0183 2.8052-1.7764 5.3998 2.242 2.5946 11.261 2.9374 17.557-1.0333 4.8977-3.0891 8.5532-7.2787 12.581-11.084-4.8848 0.88352-10.907 5.1174-16.055 3.2877-5.5509-1.9732-13.939-5.5043-15.284-9.8648-1.082-3.5076-0.65328-9.6082 2.4127-13.396 1.4873-1.8375 2.8552-3.9512 4.9127-5.1144 1.304-0.73726 3.4864 0.2051 4.3816-0.99631 1.4105-1.8932 2.543-5.1358 3.3194-6.2436 1.666-2.4616 2.9657-2.9834 4.7467-4.1181" stroke="#000" stroke-linecap="round" stroke-width="2.4377" fill="none"/>
			<path d="m19.457 153.26c-0.79705-1.288-1.824 4.0504-1.3638 4.6581 0.46017 0.60778 4.6589-1.0621 4.0914-2.3996-0.38932-0.9176-2.2568-1.4977-2.7276-2.2585z" stroke="#000" stroke-width="2.4377" fill="#fff"/>
			<g>
				<path style="color-rendering:auto;text-decoration-color:#000000;color:#000000;font-variant-numeric:normal;shape-rendering:auto;font-variant-ligatures:normal;text-decoration-line:none;font-variant-position:normal;mix-blend-mode:normal;solid-color:#000000;font-feature-settings:normal;shape-padding:0;font-variant-alternates:normal;text-indent:0;dominant-baseline:auto;font-variant-caps:normal;image-rendering:auto;white-space:normal;text-decoration-style:solid;text-orientation:mixed;isolation:auto;text-transform:none" d="m42.532 116.62c-0.30026-0.10727-0.72234-0.15195-1.1091 0.0756a0.73119 0.73156 0 0 0 -0.03239 0.0216c-0.72417 0.47828-0.98401 1.3239-0.86892 2.1545-0.35582 1.2375 0.95909 2.3635 2.1183 1.7711a0.73119 0.73156 0 0 0 0.25366 -0.21329c0.65557-0.87919 0.81757-2.015 0.52621-3.0347a0.73119 0.73156 0 0 0 -0.16461 -0.29698c-0.19107-0.20687-0.42294-0.37058-0.7232-0.47788z"/>
				<path stroke-linejoin="round" d="m34.923 120.14c-1.0875 0.4186-1.1572 2.2064-0.10795 2.7107 0.65714 0.11888 1.2362-0.56369 1.1631-1.1934 0.19648-0.62863-0.17707-1.5203-0.9094-1.5335-0.04858 0.006-0.09714 0.0111-0.14572 0.0162z" stroke="#000" stroke-linecap="round" stroke-width="1.4626"/>
				<path style="color-rendering:auto;text-decoration-color:#000000;color:#000000;font-variant-numeric:normal;shape-rendering:auto;font-variant-ligatures:normal;text-decoration-line:none;font-variant-position:normal;mix-blend-mode:normal;solid-color:#000000;font-feature-settings:normal;shape-padding:0;font-variant-alternates:normal;text-indent:0;dominant-baseline:auto;font-variant-caps:normal;image-rendering:auto;white-space:normal;text-decoration-style:solid;text-orientation:mixed;isolation:auto;text-transform:none" d="m52.954 125.44c-0.06115 0.001-0.1219 0.0111-0.1808 0.027l-0.30223 0.0864-0.03239 0.008 0.0028 0.003c-0.0072 0.001-0.01442 0.004-0.02159 0.006-0.84766 0.26681-1.6536 0.66135-2.3828 1.1717-0.16605 0.11612-0.27648 0.29607-0.30493 0.49679-0.18849 1.3319 1.2308 2.2715 2.4098 1.7225 1.1024-0.20126 2.0772-0.88632 2.5582-1.9088 0.05386-0.11446 0.07709-0.24101 0.06746-0.36718-0.04318-0.54779-0.49981-0.96831-0.86622-1.107-0.36641-0.13863-0.69429-0.14421-0.94718-0.13768z"/>
				<path stroke-linejoin="round" d="m51.473 131.85c-0.63911 0.0939-1.111 0.79916-0.94178 1.4255 1.0102 0.44723 2.1579 0.2855 3.1897 0.006 0.2857-0.7212-0.47957-1.5666-1.2251-1.385-0.34048-0.0246-0.68093-0.0585-1.0227-0.0459z" stroke="#000" stroke-linecap="round" stroke-width="1.4626"/>
			</g>
			<path style="color-rendering:auto;text-decoration-color:#000000;color:#000000;font-variant-numeric:normal;shape-rendering:auto;font-variant-ligatures:normal;text-decoration-line:none;font-variant-position:normal;mix-blend-mode:normal;solid-color:#000000;font-feature-settings:normal;shape-padding:0;font-variant-alternates:normal;text-indent:0;dominant-baseline:auto;font-variant-caps:normal;image-rendering:auto;white-space:normal;text-decoration-style:solid;text-orientation:mixed;isolation:auto;text-transform:none" d="m21.519 137.4a0.73119 0.73156 0 0 0 -0.1916 0.0999c-1.3153 0.96931-2.1244 2.4728-2.3423 4.0471a0.73119 0.73156 0 0 0 0.0054 0.2403c0.25875 1.3324 2.1684 1.5256 2.7174 0.29698 0.87934-1.0881 1.322-2.483 1.1847-3.8662a0.73119 0.73156 0 0 0 -0.12684 -0.34019c-0.08399-0.1222-0.19303-0.25908-0.39128-0.38069-0.19826-0.12164-0.54485-0.20689-0.85543-0.0972z" fill="#f91515"/>
			<g stroke-linejoin="round" stroke="#000" stroke-linecap="round" stroke-width="1.4626">
				<path d="m37.108 140.45c-0.41624 0.19919-0.24056 0.76618 0 1.0394 0.25852 0.31078 0.76486 0.0517 0.79606-0.31318 0.14213-0.45514-0.38276-0.81952-0.79606-0.72627z"/>
				<path d="m34.269 142.34c-0.64088 0.12137-0.42311 1.2904 0.22226 1.1706 0.63556-0.12994 0.45797-1.3064-0.22226-1.1706z"/>
				<path d="m37.467 145.78c-0.5017 0.0368-0.94175 0.566-0.74209 1.0638 0.12088 0.331 0.59247 0.39423 0.80433 0.12012 0.33264-0.22344 0.65417-0.75619 0.33984-1.1136-0.11546-0.0821-0.26642-0.0845-0.40208-0.0702z"/>
			</g>
			<g stroke="#000">
				<path d="m27.502 123.89c6.8019 3.704 12.756 9.3459 18.323 15.875" stroke-linecap="round" stroke-width="2.4377" fill="none"/>
				<path d="m27.29 123.81c-1.1931 0.82608-3.0266 0.22226-4.3025 0.94366-1.1388 0.64385-1.8673 1.2673-3.2821 3.2159 1.3079 3.6394 0.75993 7.3411 3.3726 7.4275 2.8352 0.0937 12.324-6.0601 12.324-6.0601-2.7222-2.2661-5.4267-4.1459-8.1123-5.5269z" stroke-width=".36565px"/>
				<path d="m16.3 161.21c0.20278 1.0408-0.84364 1.6224 2.0655 3.8513 2.9091 2.2288 11.676 2.8446 21.227 2.0379 27.981-2.3637 35.195 1.7 41.55-10.594 1.5573-3.1722 1.5744-7.8779 0.79665-11.956-0.77777-4.0779-1.1397-8.665-3.3194-12.947-2.1796-4.2824-9.3927-9.9468-11.817-14.418-2.4242-4.4713-4.689-5.3296-8.6304-6.7749-3.9414-1.4454-10.342-1.2277-14.207-0.53137-3.8649 0.69631-8.6304 3.5867-8.6304 3.5867" stroke-width="2.4377" fill="none"/>
			</g>
			<path style="color-rendering:auto;text-decoration-color:#000000;color:#000000;font-variant-numeric:normal;shape-rendering:auto;font-variant-ligatures:normal;text-decoration-line:none;font-variant-position:normal;mix-blend-mode:normal;solid-color:#000000;font-feature-settings:normal;shape-padding:0;font-variant-alternates:normal;text-indent:0;dominant-baseline:auto;font-variant-caps:normal;image-rendering:auto;white-space:normal;text-decoration-style:solid;text-orientation:mixed;isolation:auto;text-transform:none" d="m66.646 133.85a1.2187 1.2193 0 0 0 -0.7313 2.1383l5.057 4.5331-3.0817 1.5254a1.2187 1.2193 0 0 0 -0.25096 2.0195l5.9179 5.0407-7.9067 1.4282a1.2187 1.2193 0 0 0 -0.79606 1.8764l3.5108 5.2567-6.722 1.0908a1.2187 1.2193 0 1 0 0.39128 2.4056l8.5948-1.3904a1.2187 1.2193 0 0 0 0.81765 -1.8818l-3.5324-5.2891 8.6083-1.5551a1.2187 1.2193 0 0 0 0.57478 -2.1275l-6.4684-5.5105 3.0385-1.5011a1.2187 1.2193 0 0 0 0.27255 -2.0033l-6.4009-5.7346a1.2187 1.2193 0 0 0 -0.89321 -0.32129z" fill="#f91515"/>
		</g>
	</g>
</svg>
